<?xml version="1.0" encoding="utf-8"?>
<!-- Generator: Adobe Illustrator 16.0.2, SVG Export Plug-In . SVG Version: 6.00 Build 0)  -->
<!DOCTYPE svg PUBLIC "-//W3C//DTD SVG 1.1//EN" "http://www.w3.org/Graphics/SVG/1.1/DTD/svg11.dtd">
<svg version="1.1" id="Layer_1" xmlns="http://www.w3.org/2000/svg" xmlns:xlink="http://www.w3.org/1999/xlink" x="0px" y="0px"
	 width="1150.11px" height="277.486px" viewBox="0 0 1150.11 277.486" enable-background="new 0 0 1150.11 277.486"
	 xml:space="preserve">
<path fill="#F6E426" d="M1616.695-337.312"/>
<polygon fill="#F6E426" points="1091.134,122.678 909.026,122.488 928.687,60.302 1110.908,60.302 "/>
<g>
	<path fill="#0D2F5B" d="M955.055,103.226c0,1.317-0.45,2.425-1.35,3.325c-0.9,0.899-2.009,1.35-3.325,1.35
		c-1.317,0-2.425-0.45-3.325-1.35c-0.9-0.9-1.35-2.008-1.35-3.325c0-1.316,0.45-2.425,1.35-3.325s2.008-1.35,3.325-1.35
		c1.316,0,2.425,0.449,3.325,1.35S955.055,101.909,955.055,103.226z"/>
	<path fill="#0D2F5B" d="M962.379,104.351c-2.584-2.601-3.875-6.066-3.875-10.4c0-4.333,1.291-7.791,3.875-10.375
		c2.583-2.583,5.925-3.875,10.025-3.875c3.4,0,6.283,0.843,8.65,2.525c2.366,1.684,3.933,4.092,4.7,7.225h-9.25
		c-0.8-1.666-2.109-2.5-3.925-2.5c-1.817,0-3.167,0.643-4.05,1.925c-0.884,1.284-1.325,2.976-1.325,5.075
		c0,2.101,0.441,3.792,1.325,5.075c0.883,1.283,2.175,1.925,3.875,1.925c1.066,0,1.9-0.183,2.5-0.55c0.6-0.366,1.133-1.017,1.6-1.95
		h9.25c-0.768,3-2.35,5.384-4.75,7.15c-2.4,1.767-5.268,2.649-8.6,2.649C968.304,108.25,964.962,106.95,962.379,104.351z"/>
	<path fill="#0D2F5B" d="M992.779,104.301c-2.817-2.633-4.225-6.101-4.225-10.4s1.4-7.741,4.2-10.325
		c2.8-2.583,6.266-3.875,10.4-3.875c4.133,0,7.591,1.292,10.375,3.875c2.783,2.584,4.175,6.025,4.175,10.325s-1.383,7.768-4.15,10.4
		c-2.767,2.633-6.217,3.949-10.35,3.949C999.07,108.25,995.595,106.934,992.779,104.301z M1007.304,99.15
		c1.133-1.2,1.7-2.933,1.7-5.2c0-2.267-0.584-3.991-1.75-5.175c-1.167-1.183-2.55-1.775-4.15-1.775c-1.6,0-2.975,0.593-4.125,1.775
		c-1.15,1.184-1.725,2.908-1.725,5.175c0,2.268,0.591,4,1.775,5.2c1.183,1.2,2.575,1.8,4.175,1.8S1006.17,100.351,1007.304,99.15z"
		/>
	<path fill="#0D2F5B" d="M1031.753,80v4.101c1.767-2.933,4.583-4.4,8.45-4.4c2.066,0,3.908,0.468,5.525,1.4
		c1.617,0.934,2.875,2.267,3.775,4c1.033-1.633,2.375-2.941,4.025-3.925c1.65-0.983,3.491-1.476,5.525-1.476
		c3.4,0,6.1,1.05,8.1,3.15c2,2.1,3,5.017,3,8.75v16.3h-8.5V92.75c0-1.8-0.475-3.191-1.425-4.175
		c-0.95-0.982-2.258-1.475-3.925-1.475c-1.667,0-2.975,0.492-3.925,1.475c-0.95,0.983-1.425,2.375-1.425,4.175v15.15h-8.5V92.75
		c0-1.8-0.475-3.191-1.425-4.175c-0.95-0.982-2.259-1.475-3.925-1.475c-1.667,0-2.975,0.492-3.925,1.475
		c-0.95,0.983-1.425,2.375-1.425,4.175v15.15h-8.55V80H1031.753z"/>
</g>
<g>
	<path fill="#FFFFFF" d="M59.375,145.443v8.2c3.533-5.866,9.166-8.801,16.9-8.801c4.133,0,7.815,0.935,11.05,2.801
		c3.233,1.867,5.75,4.534,7.55,8c2.065-3.266,4.75-5.883,8.05-7.851c3.3-1.966,6.983-2.95,11.05-2.95c6.8,0,12.2,2.101,16.2,6.301
		c4,4.199,6,10.034,6,17.5v32.6h-17v-30.3c0-3.601-0.95-6.383-2.85-8.351c-1.9-1.965-4.517-2.949-7.85-2.949
		c-3.334,0-5.95,0.984-7.85,2.949c-1.9,1.968-2.85,4.75-2.85,8.351v30.3h-17v-30.3c0-3.601-0.95-6.383-2.85-8.351
		c-1.9-1.965-4.517-2.949-7.85-2.949c-3.334,0-5.95,0.984-7.85,2.949c-1.9,1.968-2.85,4.75-2.85,8.351v30.3h-17.1v-55.8H59.375z"/>
	<path fill="#FFFFFF" d="M153.974,193.943c-4.934-5.333-7.4-12.166-7.4-20.5c0-8.333,2.466-15.183,7.4-20.55
		c4.933-5.366,10.95-8.051,18.05-8.051s12.55,2.635,16.35,7.9v-7.3h17.1v55.8h-17.1v-8.1c-4.135,5.867-9.667,8.8-16.6,8.8
		C164.84,201.943,158.907,199.277,153.974,193.943z M184.674,183.543c2.466-2.399,3.7-5.8,3.7-10.2c0-4.399-1.234-7.782-3.7-10.149
		c-2.467-2.366-5.3-3.55-8.5-3.55s-6.034,1.199-8.5,3.6c-2.467,2.4-3.7,5.8-3.7,10.2c0,4.399,1.233,7.784,3.7,10.149
		c2.466,2.367,5.3,3.551,8.5,3.551S182.207,185.943,184.674,183.543z"/>
	<path fill="#FFFFFF" d="M237.574,145.443v10.399c4-7.332,9.333-11,16-11v17.4h-4.2c-3.934,0-6.884,0.935-8.85,2.8
		c-1.967,1.867-2.95,5.135-2.95,9.8v26.4h-17.1v-55.8H237.574z"/>
	<path fill="#FFFFFF" d="M279.974,201.243h-17.1v-74h17.1v41.5l17.3-23.3h23l-23.9,28.5l23.9,27.3h-22.7l-17.6-22.3V201.243z"/>
	<path fill="#FFFFFF" d="M331.473,193.943c-4.934-5.333-7.4-12.166-7.4-20.5c0-8.333,2.466-15.183,7.4-20.55
		c4.933-5.366,10.95-8.051,18.05-8.051s12.55,2.635,16.35,7.9v-7.3h17.1v55.5c0,7.8-2.134,14.3-6.4,19.5
		c-2.134,2.665-5.05,4.732-8.75,6.2c-3.7,1.465-7.984,2.199-12.85,2.199c-8.534,0-15.3-1.734-20.3-5.199
		c-5-3.468-7.834-8.768-8.5-15.9h16.8c1.6,4.2,5.6,6.3,12,6.3c3.133,0,5.733-1.05,7.8-3.149c2.065-2.101,3.1-5.418,3.1-9.95v-7.8
		c-4.135,5.867-9.667,8.8-16.6,8.8C342.339,201.943,336.406,199.277,331.473,193.943z M362.173,183.543
		c2.466-2.399,3.7-5.8,3.7-10.2c0-4.399-1.234-7.782-3.7-10.149c-2.467-2.366-5.3-3.55-8.5-3.55s-6.034,1.199-8.5,3.6
		c-2.467,2.4-3.7,5.8-3.7,10.2c0,4.399,1.233,7.784,3.7,10.149c2.466,2.367,5.3,3.551,8.5,3.551S359.706,185.943,362.173,183.543z"
		/>
	<path fill="#FFFFFF" d="M401.273,193.943c-4.934-5.333-7.4-12.166-7.4-20.5c0-8.333,2.466-15.183,7.4-20.55
		c4.933-5.366,10.95-8.051,18.05-8.051s12.55,2.635,16.35,7.9v-7.3h17.1v55.8h-17.1v-8.1c-4.135,5.867-9.667,8.8-16.6,8.8
		C412.139,201.943,406.206,199.277,401.273,193.943z M431.973,183.543c2.466-2.399,3.7-5.8,3.7-10.2c0-4.399-1.234-7.782-3.7-10.149
		c-2.467-2.366-5.3-3.55-8.5-3.55s-6.034,1.199-8.5,3.6c-2.467,2.4-3.7,5.8-3.7,10.2c0,4.399,1.233,7.784,3.7,10.149
		c2.466,2.367,5.3,3.551,8.5,3.551S429.506,185.943,431.973,183.543z"/>
	<path fill="#FFFFFF" d="M484.873,145.443v10.399c4-7.332,9.333-11,16-11v17.4h-4.2c-3.934,0-6.884,0.935-8.85,2.8
		c-1.967,1.867-2.95,5.135-2.95,9.8v26.4h-17.1v-55.8H484.873z"/>
	<path fill="#FFFFFF" d="M527.272,145.443v10.399c4-7.332,9.333-11,16-11v17.4h-4.2c-3.934,0-6.884,0.935-8.85,2.8
		c-1.967,1.867-2.95,5.135-2.95,9.8v26.4h-17.1v-55.8H527.272z"/>
	<path fill="#FFFFFF" d="M576.272,201.943c-8.135,0-14.8-2.616-20-7.851c-5.2-5.232-7.8-12.183-7.8-20.85
		c0-8.666,2.583-15.565,7.75-20.7c5.166-5.133,11.85-7.7,20.05-7.7c8.2,0,15,2.535,20.4,7.601c5.4,5.067,8.1,12.1,8.1,21.1
		c0,1.935-0.135,3.734-0.4,5.4h-38.4c0.333,2.467,1.433,4.484,3.3,6.05c1.865,1.567,3.883,2.35,6.05,2.35
		c2.166,0,3.783-0.215,4.85-0.649c1.065-0.433,1.85-0.866,2.35-1.3s1.15-1.15,1.95-2.15h18.5c-1.6,5.6-4.8,10.117-9.6,13.55
		C588.572,200.228,582.872,201.943,576.272,201.943z M583.572,161.894c-2-1.633-4.367-2.45-7.1-2.45c-2.734,0-5.034,0.817-6.9,2.45
		c-1.867,1.634-3.034,3.75-3.5,6.35h20.9C586.705,165.644,585.572,163.527,583.572,161.894z"/>
	<path fill="#FFFFFF" d="M639.471,186.743h6.1v14.5h-8.7c-6.267,0-11.117-1.383-14.55-4.15c-3.434-2.766-5.15-7.516-5.15-14.25
		v-23.199h-5.2v-14.2h5.2v-13.601h17.1v13.601h11.2v14.2h-11.2v23.199C634.271,185.443,636.003,186.743,639.471,186.743z"/>
	<path fill="#FFFFFF" d="M680.97,186.743h6.1v14.5h-8.7c-6.267,0-11.117-1.383-14.55-4.15c-3.434-2.766-5.15-7.516-5.15-14.25
		v-23.199h-5.2v-14.2h5.2v-13.601h17.1v13.601h11.2v14.2h-11.2v23.199C675.77,185.443,677.503,186.743,680.97,186.743z"/>
	<path fill="#FFFFFF" d="M715.87,127.243v26.4c3.533-5.866,9.166-8.801,16.9-8.801c6.4,0,11.583,2.135,15.55,6.4
		c3.966,4.268,5.95,10.067,5.95,17.4v32.6h-17v-30.3c0-3.601-0.95-6.383-2.85-8.351c-1.9-1.965-4.517-2.949-7.85-2.949
		c-3.334,0-5.95,0.984-7.85,2.949c-1.9,1.968-2.85,4.75-2.85,8.351v30.3h-17.1v-74H715.87z"/>
	<path fill="#FFFFFF" d="M772.069,193.943c-4.934-5.333-7.4-12.166-7.4-20.5c0-8.333,2.466-15.183,7.4-20.55
		c4.933-5.366,10.95-8.051,18.05-8.051s12.55,2.635,16.35,7.9v-7.3h17.1v55.8h-17.1v-8.1c-4.135,5.867-9.667,8.8-16.6,8.8
		C782.935,201.943,777.002,199.277,772.069,193.943z M802.769,183.543c2.466-2.399,3.7-5.8,3.7-10.2c0-4.399-1.234-7.782-3.7-10.149
		c-2.467-2.366-5.3-3.55-8.5-3.55s-6.034,1.199-8.5,3.6c-2.467,2.4-3.7,5.8-3.7,10.2c0,4.399,1.233,7.784,3.7,10.149
		c2.466,2.367,5.3,3.551,8.5,3.551S800.302,185.943,802.769,183.543z"/>
	<path fill="#FFFFFF" d="M853.169,200.144l-21.7-54.7h19.4l12.4,36.5l13.6-36.5h17.9l-35.6,82.399h-17.9L853.169,200.144z"/>
	<path fill="#FFFFFF" d="M926.368,201.943c-8.135,0-14.8-2.616-20-7.851c-5.2-5.232-7.8-12.183-7.8-20.85
		c0-8.666,2.583-15.565,7.75-20.7c5.166-5.133,11.85-7.7,20.05-7.7c8.2,0,15,2.535,20.4,7.601c5.4,5.067,8.1,12.1,8.1,21.1
		c0,1.935-0.135,3.734-0.4,5.4h-38.4c0.333,2.467,1.433,4.484,3.3,6.05c1.865,1.567,3.883,2.35,6.05,2.35
		c2.166,0,3.783-0.215,4.85-0.649c1.065-0.433,1.85-0.866,2.35-1.3s1.15-1.15,1.95-2.15h18.5c-1.6,5.6-4.8,10.117-9.6,13.55
		C938.668,200.228,932.968,201.943,926.368,201.943z M933.668,161.894c-2-1.633-4.367-2.45-7.1-2.45c-2.734,0-5.034,0.817-6.9,2.45
		c-1.867,1.634-3.034,3.75-3.5,6.35h20.9C936.801,165.644,935.668,163.527,933.668,161.894z"/>
	<path fill="#FFFFFF" d="M962.067,162.243c0-4.933,2.1-9.065,6.3-12.4c4.2-3.332,9.883-5,17.05-5c7.166,0,12.95,1.635,17.35,4.9
		c4.4,3.268,6.733,7.734,7,13.4h-17.5c-0.2-1.934-0.867-3.25-2-3.95c-1.134-0.7-2.834-1.05-5.1-1.05c-4.467,0-6.7,1.367-6.7,4.1
		c0,2.467,2.733,4.167,8.2,5.1c5.533,0.935,10.566,2.367,15.1,4.301c2.333,0.934,4.283,2.484,5.85,4.649
		c1.565,2.167,2.35,4.817,2.35,7.95c0,5.2-2.234,9.45-6.7,12.75c-4.467,3.3-10.1,4.95-16.9,4.95s-12.467-1.55-17-4.65
		c-4.534-3.1-7-7.683-7.4-13.75h17.5c0.465,3.4,2.866,5.101,7.2,5.101c2,0,3.65-0.466,4.95-1.4c1.3-0.933,1.95-2.133,1.95-3.6
		c0-1.466-1.084-2.633-3.25-3.5c-2.167-0.866-4.785-1.601-7.85-2.2c-3.067-0.601-6.15-1.351-9.25-2.25c-3.1-0.9-5.734-2.466-7.9-4.7
		C963.149,168.761,962.067,165.843,962.067,162.243z"/>
</g>
</svg>
